<?xml version="1.0" encoding="UTF-8"?>
<svg width="204px" height="92px" viewBox="0 0 204 92" version="1.1" xmlns="http://www.w3.org/2000/svg" xmlns:xlink="http://www.w3.org/1999/xlink">
    <!-- Generator: Sketch 63.1 (92452) - https://sketch.com -->
    <title>Group</title>
    <desc>Created with Sketch.</desc>
    <g id="Page-1" stroke="none" stroke-width="1" fill="none" fill-rule="evenodd">
        <g id="Group" transform="translate(-1.000000, 0.000000)">
            <path d="M24.5899968,38.993748 L39.5899968,48.368748 C40.4671409,48.9169631 41,49.8783728 41,50.9127429 L41,70.0872571 C41,71.1216272 40.4671409,72.0830369 39.5899968,72.631252 L24.5899968,82.006252 C23.617186,82.6142588 22.382814,82.6142588 21.4100032,82.006252 L6.41000318,72.631252 C5.53285909,72.0830369 5,71.1216272 5,70.0872571 L5,50.9127429 C5,49.8783728 5.53285909,48.9169631 6.41000318,48.368748 L21.4100032,38.993748 C22.382814,38.3857412 23.617186,38.3857412 24.5899968,38.993748 Z" id="Polygon" fill-opacity="0.8" fill="#D1CAAD" transform="translate(23.000000, 60.500000) rotate(90.000000) translate(-23.000000, -60.500000) "></path>
            <path d="M24.5899968,11.993748 L39.5899968,21.368748 C40.4671409,21.9169631 41,22.8783728 41,23.9127429 L41,43.0872571 C41,44.1216272 40.4671409,45.0830369 39.5899968,45.631252 L24.5899968,55.006252 C23.617186,55.6142588 22.382814,55.6142588 21.4100032,55.006252 L6.41000318,45.631252 C5.53285909,45.0830369 5,44.1216272 5,43.0872571 L5,23.9127429 C5,22.8783728 5.53285909,21.9169631 6.41000318,21.368748 L21.4100032,11.993748 C22.382814,11.3857412 23.617186,11.3857412 24.5899968,11.993748 Z" id="Polygon" fill-opacity="0.8" fill="#2AAA9E" transform="translate(23.000000, 33.500000) rotate(90.000000) translate(-23.000000, -33.500000) "></path>
            <path d="M50.5899968,51.993748 L65.5899968,61.368748 C66.4671409,61.9169631 67,62.8783728 67,63.9127429 L67,83.0872571 C67,84.1216272 66.4671409,85.0830369 65.5899968,85.631252 L50.5899968,95.006252 C49.617186,95.6142588 48.382814,95.6142588 47.4100032,95.006252 L32.4100032,85.631252 C31.5328591,85.0830369 31,84.1216272 31,83.0872571 L31,63.9127429 C31,62.8783728 31.5328591,61.9169631 32.4100032,61.368748 L47.4100032,51.993748 C48.382814,51.3857412 49.617186,51.3857412 50.5899968,51.993748 Z" id="Polygon" fill-opacity="0.8" fill="#3EA4DC" transform="translate(49.000000, 73.500000) rotate(90.000000) translate(-49.000000, -73.500000) "></path>
            <path d="M50.5899968,-3.00625199 L65.5899968,6.36874801 C66.4671409,6.91696307 67,7.87837283 67,8.91274292 L67,28.0872571 C67,29.1216272 66.4671409,30.0830369 65.5899968,30.631252 L50.5899968,40.006252 C49.617186,40.6142588 48.382814,40.6142588 47.4100032,40.006252 L32.4100032,30.631252 C31.5328591,30.0830369 31,29.1216272 31,28.0872571 L31,8.91274292 C31,7.87837283 31.5328591,6.91696307 32.4100032,6.36874801 L47.4100032,-3.00625199 C48.382814,-3.61425877 49.617186,-3.61425877 50.5899968,-3.00625199 Z" id="Polygon" fill-opacity="0.8" fill="#B13581" transform="translate(49.000000, 18.500000) rotate(90.000000) translate(-49.000000, -18.500000) "></path>
            <text id="Greater-Manchester" font-family="Calibri" font-size="13" font-weight="normal" fill="#7D7C7A">
                <tspan x="78" y="28">Greater Manchester</tspan>
            </text>
            <text id="Critical-Care-Networ" font-family="Garamond-Bold, Garamond" font-size="24" font-weight="bold" line-spacing="20" fill="#6C6B69">
                <tspan x="78" y="56">Critical Care</tspan>
                <tspan x="78" y="76">Network</tspan>
            </text>
        </g>
    </g>
</svg>