<?xml version="1.0" encoding="UTF-8"?>
<svg width="469px" height="222px" viewBox="0 0 469 222" version="1.1" xmlns="http://www.w3.org/2000/svg" xmlns:xlink="http://www.w3.org/1999/xlink">
    <!-- Generator: Sketch 52.6 (67491) - http://www.bohemiancoding.com/sketch -->
    <title>Artboard Copy 4</title>
    <desc>Created with Sketch.</desc>
    <g id="Artboard-Copy-4" stroke="none" stroke-width="1" fill="none" fill-rule="evenodd">
        <path d="M48.64,54 L69.28,54 L69.28,114.72 L98.8,114.72 L98.8,132 L48.64,132 L48.64,54 Z M144.32,133.44 C138.879973,133.44 133.940022,132.520009 129.5,130.68 C125.059978,128.839991 121.260016,126.180017 118.1,122.7 C114.939984,119.219983 112.480009,114.940025 110.72,109.86 C108.959991,104.779975 108.08,99.040032 108.08,92.64 C108.08,86.239968 108.959991,80.540025 110.72,75.54 C112.480009,70.539975 114.939984,66.340017 118.1,62.94 C121.260016,59.539983 125.059978,56.9600088 129.5,55.2 C133.940022,53.4399912 138.879973,52.56 144.32,52.56 C149.680027,52.56 154.599978,53.4399912 159.08,55.2 C163.560022,56.9600088 167.379984,59.5599828 170.54,63 C173.700016,66.4400172 176.159991,70.6399752 177.92,75.6 C179.680009,80.5600248 180.56,86.239968 180.56,92.64 C180.56,99.040032 179.680009,104.779975 177.92,109.86 C176.159991,114.940025 173.700016,119.219983 170.54,122.7 C167.379984,126.180017 163.560022,128.839991 159.08,130.68 C154.599978,132.520009 149.680027,133.44 144.32,133.44 Z M144.32,115.68 C149.040024,115.68 152.739987,113.620021 155.42,109.5 C158.100013,105.379979 159.44,99.7600356 159.44,92.64 C159.44,85.5199644 158.100013,80.0200194 155.42,76.14 C152.739987,72.2599806 149.040024,70.32 144.32,70.32 C139.599976,70.32 135.900013,72.2599806 133.22,76.14 C130.539987,80.0200194 129.2,85.5199644 129.2,92.64 C129.2,99.7600356 130.539987,105.379979 133.22,109.5 C135.900013,113.620021 139.599976,115.68 144.32,115.68 Z M198.48,54 L219.84,54 L232.08,86.4 L236.4,99.12 L236.88,99.12 L241.2,86.4 L252.96,54 L274.32,54 L274.32,132 L257.76,132 C257.599999,99.3600064 257.599999,82.4000064 257.76,81.12 L257.28,81.12 L250.8,99.36 L241.2,132 L232.08,132 L221.52,99.36 L215.28,81.12 L214.8,81.12 C214.960001,82.4000064 215.120001,99.3600064 215.28,132 L198.48,132 L198.48,54 Z M328.84,99.48 L327.52,94.08 C326.559995,90.3199812 325.600005,86.240022 324.64,81.84 C323.679995,77.439978 322.720005,73.2800196 321.76,69.36 L321.28,69.36 C320.399996,73.36002 319.500005,77.5399782 318.58,81.9 C317.659995,86.2600218 316.720005,90.3199812 315.76,94.08 L314.44,99.48 L328.84,99.48 Z M332.56,115.44 L310.72,115.44 L306.88,132 L285.76,132 L309.52,54 L334.48,54 L358.24,132 L336.4,132 L332.56,115.44 Z M376.64,108.12 C379.440014,110.360011 382.459984,112.179993 385.7,113.58 C388.940016,114.980007 391.999986,115.68 394.88,115.68 C398.000016,115.68 400.259993,115.200005 401.66,114.24 C403.060007,113.279995 403.76,111.920009 403.76,110.16 C403.76,109.199995 403.520002,108.400003 403.04,107.76 C402.559998,107.119997 401.860005,106.520003 400.94,105.96 C400.019995,105.399997 398.920006,104.860003 397.64,104.34 C396.359994,103.819997 394.880008,103.240003 393.2,102.6 L383.48,98.52 C381.39999,97.719996 379.40001,96.6600066 377.48,95.34 C375.55999,94.0199934 373.880007,92.460009 372.44,90.66 C370.999993,88.859991 369.860004,86.8000116 369.02,84.48 C368.179996,82.1599884 367.76,79.600014 367.76,76.8 C367.76,73.4399832 368.479993,70.3000146 369.92,67.38 C371.360007,64.4599854 373.359987,61.900011 375.92,59.7 C378.480013,57.499989 381.539982,55.7600064 385.1,54.48 C388.660018,53.1999936 392.559979,52.56 396.8,52.56 C401.280022,52.56 405.819977,53.3999916 410.42,55.08 C415.020023,56.7600084 419.119982,59.399982 422.72,63 L412.4,75.96 C409.759987,74.1199908 407.220012,72.7200048 404.78,71.76 C402.339988,70.7999952 399.680014,70.32 396.8,70.32 C394.239987,70.32 392.240007,70.7599956 390.8,71.64 C389.359993,72.5200044 388.64,73.8399912 388.64,75.6 C388.64,77.4400092 389.65999,78.859995 391.7,79.86 C393.74001,80.860005 396.559982,82.0399932 400.16,83.4 L409.64,87.12 C414.520024,89.0400096 418.279987,91.7199828 420.92,95.16 C423.560013,98.6000172 424.88,103.039973 424.88,108.48 C424.88,111.760016 424.200007,114.919985 422.84,117.96 C421.479993,121.000015 419.500013,123.659989 416.9,125.94 C414.299987,128.220011 411.120019,130.039993 407.36,131.4 C403.599981,132.760007 399.280024,133.44 394.4,133.44 C389.439975,133.44 384.340026,132.540009 379.1,130.74 C373.859974,128.939991 369.120021,126.120019 364.88,122.28 L376.64,108.12 Z" id="LOMAS" stroke="#FFFFFF" fill="#1B71D5"></path>
        <path d="M54,155.36 L58.92,155.36 C61.9600152,155.36 64.2699921,156.199992 65.85,157.88 C67.4300079,159.560008 68.22,161.969984 68.22,165.11 C68.22,166.670008 68.020002,168.064994 67.62,169.295 C67.219998,170.525006 66.6300039,171.564996 65.85,172.415 C65.0699961,173.265004 64.1100057,173.914998 62.97,174.365 C61.8299943,174.815002 60.5200074,175.04 59.04,175.04 L54,175.04 L54,155.36 Z M58.74,173 C61.0400115,173 62.7649943,172.310007 63.915,170.93 C65.0650057,169.549993 65.64,167.610013 65.64,165.11 C65.64,162.609988 65.0650057,160.700007 63.915,159.38 C62.7649943,158.059993 61.0400115,157.4 58.74,157.4 L56.49,157.4 L56.49,173 L58.74,173 Z M117.45,155.36 L119.94,155.36 L119.94,175.04 L117.45,175.04 L117.45,155.36 Z M169.2,165.2 C169.2,163.619992 169.424998,162.200006 169.875,160.94 C170.325002,159.679994 170.954996,158.610004 171.765,157.73 C172.575004,156.849996 173.529994,156.175002 174.63,155.705 C175.730006,155.234998 176.939993,155 178.26,155 C179.620007,155 180.754995,155.254997 181.665,155.765 C182.575005,156.275003 183.319997,156.829997 183.9,157.43 L182.49,159.02 C181.989998,158.499997 181.415003,158.065002 180.765,157.715 C180.114997,157.364998 179.290005,157.19 178.29,157.19 C177.289995,157.19 176.390004,157.374998 175.59,157.745 C174.789996,158.115002 174.110003,158.644997 173.55,159.335 C172.989997,160.025003 172.555002,160.859995 172.245,161.84 C171.934998,162.820005 171.78,163.919994 171.78,165.14 C171.78,166.380006 171.924999,167.494995 172.215,168.485 C172.505001,169.475005 172.924997,170.319997 173.475,171.02 C174.025003,171.720004 174.704996,172.259998 175.515,172.64 C176.325004,173.020002 177.259995,173.21 178.32,173.21 C179.020003,173.21 179.684997,173.105001 180.315,172.895 C180.945003,172.684999 181.459998,172.400002 181.86,172.04 L181.86,166.91 L177.69,166.91 L177.69,164.84 L184.14,164.84 L184.14,173.12 C183.499997,173.780003 182.655005,174.324998 181.605,174.755 C180.554995,175.185002 179.370007,175.4 178.05,175.4 C176.749994,175.4 175.560005,175.170002 174.48,174.71 C173.399995,174.249998 172.470004,173.585004 171.69,172.715 C170.909996,171.844996 170.300002,170.775006 169.86,169.505 C169.419998,168.234994 169.2,166.800008 169.2,165.2 Z M233.85,155.36 L236.34,155.36 L236.34,175.04 L233.85,175.04 L233.85,155.36 Z M290.82,157.46 L284.88,157.46 L284.88,155.36 L299.28,155.36 L299.28,157.46 L293.34,157.46 L293.34,175.04 L290.82,175.04 L290.82,157.46 Z M354.99,167.03 L354.06,164.03 C353.699998,162.929995 353.360002,161.835005 353.04,160.745 C352.719998,159.654995 352.400002,158.540006 352.08,157.4 L351.96,157.4 C351.659998,158.540006 351.350002,159.654995 351.03,160.745 C350.709998,161.835005 350.370002,162.929995 350.01,164.03 L349.08,167.03 L354.99,167.03 Z M355.62,169.04 L348.45,169.04 L346.56,175.04 L344.01,175.04 L350.67,155.36 L353.49,155.36 L360.15,175.04 L357.48,175.04 L355.62,169.04 Z M407.94,155.36 L410.43,155.36 L410.43,172.91 L419.04,172.91 L419.04,175.04 L407.94,175.04 L407.94,155.36 Z" id="DIGITAL" stroke="#FFFFFF" fill="#808080"></path>
    </g>
</svg>